<?xml version="1.0" encoding="utf-8"?>
<!-- Generator: Adobe Illustrator 28.0.0, SVG Export Plug-In . SVG Version: 6.00 Build 0)  -->
<svg version="1.1" id="Layer_1" xmlns="http://www.w3.org/2000/svg" xmlns:xlink="http://www.w3.org/1999/xlink" x="0px" y="0px"
	 viewBox="0 0 792 612" style="enable-background:new 0 0 792 612;" xml:space="preserve">
<style type="text/css">
	.st0{fill:#B59046;}
	.st1{fill:#9CAF5D;}
	.st2{fill:#C2DFA4;}
	.st3{fill:#968278;}
	.st4{fill:#D4CBC8;}
	.st5{fill:#FFFFFF;}
	.st6{display:none;fill:#010101;}
	.st7{display:none;fill:#FFFFFF;stroke:#010101;stroke-miterlimit:10;}
	.st8{display:none;fill:none;stroke:#010101;stroke-width:6;stroke-miterlimit:10;}
	.st9{display:none;}
	.st10{display:inline;}
	.st11{fill:#010101;}
	.st12{fill:#3B262D;}
	.st13{fill:#7FBDE7;}
	.st14{fill:#B8E2E3;}
	.st15{fill:#879DD0;}
	.st16{fill:#E88348;}
	.st17{fill:#DBD3D9;}
	.st18{fill:#C2BBBD;}
	.st19{fill:#808285;}
	.st20{fill:#C1C4E3;}
	.st21{fill:#838D8F;}
	.st22{fill:#E33126;}
	.st23{fill:#DCE349;}
	.st24{fill:#F2EF87;}
	.st25{fill:#FBD676;}
	.st26{fill:#A3CB9A;}
	.st27{fill:#E53425;}
	.st28{fill:#FFDCA5;}
	.st29{fill:#F0514D;}
	.st30{fill:#F69A9C;}
	.st31{fill:#E78170;}
	.st32{fill:#B97D70;}
	.st33{fill:#FDD6C0;}
	.st34{fill:#B29782;}
	.st35{fill:#95221F;}
	.st36{fill:#A7ABD6;}
	.st37{fill:#277ABE;}
	.st38{fill:#E7D9C2;}
	.st39{fill:#E4E4E9;}
	.st40{fill:#45210E;}
	.st41{fill:#66789F;}
	.st42{fill:#F47920;}
	.st43{fill:#C1DC7E;}
	.st44{fill:#1D1816;}
	.st45{fill:#787883;}
</style>
<circle class="st6" cx="444.53" cy="-8.07" r="16.57"/>
<ellipse class="st8" cx="446.94" cy="-6.58" rx="30.35" ry="29.58"/>
<g class="st9">
	<g class="st10">
		<path d="M234.22-31.16c10.77,6.75,21.71,13.24,32.24,20.37c10.42,7.06,20.12,14.8,28.87,23.86c5.29,5.47,10.49,11.06,16.48,15.78
			c1.06,0.83,2.5,1.03,3.54,0c0.87-0.87,1.07-2.7,0-3.54c-10.41-8.2-18.57-18.84-28.75-27.32c-9.95-8.29-20.81-15.41-31.77-22.26
			c-6.01-3.76-12.07-7.44-18.08-11.2C234.01-37.19,231.5-32.86,234.22-31.16L234.22-31.16z"/>
	</g>
</g>
<g class="st9">
	<g class="st10">
		<path d="M314.38,29.58c7.18,0.01,14.41-1.56,20.59-5.31c6.17-3.74,11.22-9.32,15.6-14.97c2.32-2.98,4.56-6.04,6.62-9.21
			c2.22-3.41,3.92-7.03,5.31-10.84c1.4-3.82,2.67-7.69,3.99-11.54c1.3-3.79,2.73-7.55,3.85-11.4c1.19-4.1,1.59-8.4,1.26-12.65
			c-0.24-3.11-0.91-5.94-1.02-8.89c-0.12-3.21-5.12-3.22-5,0c0.09,2.44,0.59,4.84,0.86,7.25c0.36,3.24,0.44,6.59-0.16,9.8
			c-0.69,3.69-2.1,7.23-3.32,10.78c-1.29,3.77-2.59,7.54-3.88,11.31c-1.2,3.49-2.38,6.99-4.16,10.24c-1.76,3.21-3.9,6.21-6.06,9.16
			c-3.98,5.44-8.43,10.75-13.81,14.86c-5.94,4.54-13.29,6.41-20.68,6.4C311.16,24.58,311.16,29.58,314.38,29.58L314.38,29.58z"/>
	</g>
</g>
<g class="st9">
	<g class="st10">
		<path class="st11" d="M310.69,29.1c1.08,4.4,2.19,8.79,3.42,13.15c1.11,3.92,2.13,7.83,2.7,11.88c0.65,4.62,1.07,9.47,0.9,14.18
			c-0.02,0.52-0.05,1.04-0.09,1.55c-0.02,0.2-0.18,1.44-0.08,0.77c-0.18,1.14-0.42,2.27-0.72,3.39c-0.34,1.26-0.75,2.5-1.2,3.72
			c-0.53,1.47-1.19,3.17-1.67,4.19c-2.51,5.29-6.27,10.36-10.56,14.34c-2.84,2.63,1.41,6.87,4.24,4.24
			c4.17-3.87,7.79-8.75,10.55-13.72c2.72-4.89,4.71-10.58,5.36-16.16c0.54-4.67,0.07-9.54-0.45-14.19
			c-0.55-4.93-1.47-9.72-2.83-14.49c-1.36-4.8-2.61-9.62-3.8-14.46C315.55,23.76,309.77,25.35,310.69,29.1L310.69,29.1z"/>
	</g>
</g>
<g class="st9">
	<g class="st10">
		<path class="st11" d="M304,95.81c-9.86,4.44-19.79,8.77-30.22,11.74c-7.34,2.09-14.88,3.47-22.3,5.27
			c-11.48,2.79-23.08,5.45-34.16,9.59c-11.17,4.17-22.36,8.28-33.54,12.41c-14.31,5.28-28.61,10.56-42.9,15.88
			c-10.71,3.99-21.43,7.94-32.06,12.14c-0.75,0.29-1.49,0.59-2.23,0.89c-1.5,0.61-2.56,2-2.1,3.69c0.39,1.42,2.18,2.71,3.69,2.1
			c9.72-3.95,19.59-7.55,29.42-11.22c14.25-5.32,28.53-10.59,42.8-15.86c11.93-4.4,23.86-8.79,35.78-13.22
			c3.66-1.36,7.28-2.77,11.04-3.86c6.92-2.01,13.91-3.78,20.9-5.53c6.72-1.68,13.48-3.14,20.23-4.68
			c10.65-2.44,20.83-6.31,30.83-10.67c2.62-1.14,5.23-2.31,7.84-3.49c1.48-0.67,1.83-2.81,1.08-4.1
			C307.22,95.37,305.48,95.14,304,95.81L304,95.81z"/>
	</g>
</g>
<g class="st9">
	<g class="st10">
		<path class="st11" d="M322.24-79.44c6.51-4.65,13.42-9.06,20.78-12.26c3.75-1.63,8.36-2.72,12.51-3.78
			c5.12-1.31,10.28-2.47,15.47-3.48c10.11-1.96,20.37-3.44,30.65-4.09c5.16-0.32,10.41-0.37,15.49,0.66
			c4.78,0.96,9.37,2.69,13.77,4.76c16.45,7.71,31.3,18.54,44.46,31.01c13.66,12.94,25.53,27.6,36.19,43.07
			c11.6,16.81,21.84,34.49,31.92,52.24c1.23,2.17,2.46,4.34,3.69,6.51c1.9,3.36,7.09,0.34,5.18-3.03
			c-10.22-18.03-20.45-36.08-31.95-53.33c-10.86-16.29-22.87-31.91-36.76-45.76c-13.19-13.15-28.1-24.77-44.66-33.37
			c-4.48-2.33-9.08-4.49-13.87-6.12c-5.09-1.73-10.4-2.63-15.77-2.79c-5.31-0.16-10.62,0.33-15.89,0.88
			c-5.44,0.57-10.87,1.3-16.27,2.19c-10.51,1.72-20.92,4.06-31.15,7.02c-8.04,2.32-15.47,6.86-22.4,11.45
			c-1.5,0.99-2.98,2.01-4.44,3.06c-1.32,0.94-1.95,2.62-1.08,4.1C318.9-79.22,320.92-78.49,322.24-79.44L322.24-79.44z"/>
	</g>
</g>
<g class="st9">
	<g class="st10">
		<path class="st11" d="M-77.06,147.48c8.05,5.23,18.37,2.02,25.04-3.9c3.49-3.1,6.26-6.97,8.78-10.87
			c2.7-4.17,5.26-8.43,7.75-12.72c10.25-17.66,19.03-36.11,27.26-54.78c4.7-10.66,9.22-21.39,13.74-32.12
			c-1.93-0.53-3.86-1.06-5.79-1.6C-6.2,49.26-12.13,67.1-15.72,85.51c-1.79,9.16-3.02,18.45-3.36,27.78
			c-0.16,4.25-0.54,8.98,0.82,13.09c1.3,3.93,4.27,6.88,8.3,7.96c4.17,1.11,8.67,0.28,12.36-1.87c4.12-2.39,7.19-6.09,10.12-9.76
			c1.01-1.26,1.23-3.01,0-4.24c-1.05-1.05-3.23-1.27-4.24,0c-2.25,2.81-4.56,5.85-7.54,7.94c-1.49,1.05-2.71,1.7-4.32,2.11
			c-0.79,0.2-1.1,0.25-1.74,0.29c-0.34,0.02-0.68,0.03-1.02,0.02c-0.23,0-0.45-0.02-0.68-0.03c-0.08-0.01-0.52-0.05-0.21-0.01
			c-0.7-0.1-1.42-0.28-2.08-0.54c-0.32-0.13-0.1-0.04-0.04-0.02c-0.2-0.09-0.39-0.19-0.58-0.3c-0.19-0.11-0.85-0.57-0.73-0.46
			c-1.15-0.94-1.74-2.18-2.1-3.65c-0.41-1.66-0.43-3.37-0.43-5.07c-0.01-2.21,0.05-4.43,0.14-6.64c0.77-17.3,4.67-34.28,9.54-50.85
			c2.78-9.46,5.89-18.82,9-28.17c0.51-1.54-0.59-3.28-2.1-3.69c-1.73-0.48-3.06,0.6-3.69,2.1c-7.56,17.94-15.13,35.88-23.56,53.44
			c-4.25,8.84-8.71,17.58-13.48,26.15c-2.39,4.28-4.85,8.52-7.41,12.71c-2.26,3.7-4.49,7.48-7.18,10.89
			c-2.75,3.49-6.17,6.88-10.42,8.4c-3.96,1.42-8.14,1.53-11.7-0.79c-1.36-0.88-3.31-0.28-4.1,1.08
			C-78.99,144.84-78.42,146.6-77.06,147.48L-77.06,147.48z"/>
	</g>
</g>
<g class="st9">
	<g class="st10">
		<path class="st11" d="M547.19,35.19c0.18,0.37,0.35,0.74,0.52,1.11c-0.25-0.56,0.12,0.3,0.19,0.5c0.34,0.89,0.65,1.79,0.93,2.7
			c0.61,1.97,1.11,3.97,1.55,5.99c1.01,4.55,1.76,9.16,2.46,13.76c0.74,4.88,1.4,9.76,2.14,14.64c0.77,5.13,1.71,10.22,2.13,15.4
			c1.91,23.34-3.11,46.52-10.36,68.59c-4.15,12.63-9.04,24.99-14.08,37.29c-0.61,1.5,0.67,3.3,2.1,3.69
			c1.72,0.47,3.07-0.59,3.69-2.1c9.07-22.15,17.83-44.69,22.22-68.31c2.17-11.67,3.29-23.59,2.68-35.46
			c-0.3-5.79-1.13-11.48-2.05-17.19c-0.78-4.86-1.44-9.74-2.15-14.61c-0.79-5.44-1.62-10.89-2.76-16.28
			c-0.93-4.36-2.04-8.75-4.02-12.76c-0.72-1.45-2.78-1.85-4.1-1.08C546.79,31.95,546.47,33.73,547.19,35.19L547.19,35.19z"/>
	</g>
</g>
<g class="st9">
	<g class="st10">
		<path class="st11" d="M305.91,99.85c2.82-0.75,5.46-2.2,7.91-3.75c2.76-1.75,5.37-3.74,7.84-5.87c1.18-1.02,2.34-2.07,3.44-3.18
			c-0.79-0.61-1.57-1.21-2.36-1.82c-5.02,10.07-9.75,21.05-18.48,28.47c-2.35,2-5.1,3.69-8,4.93c-0.6,0.26-0.85,1.11-0.69,1.69
			c0.18,0.65,0.79,1.08,1.45,1.1c3.11,0.08,6.26,0.2,9.33-0.42c3.31-0.67,6.62-2.13,9.45-3.95c3.19-2.05,6.06-4.65,8.8-7.26
			c2.45-2.32,4.7-4.82,6.74-7.5c2.32-3.04,4.29-6.32,6.11-9.69c-0.86-0.5-1.73-1.01-2.59-1.51c-1.99,4.04-3.47,8.3-5.12,12.47
			c-0.79,1.98-1.58,3.86-2.57,5.81c-0.49,0.97-1.02,1.93-1.59,2.86c-0.27,0.43-0.54,0.86-0.83,1.28c-0.27,0.4-0.65,0.93-0.86,1.19
			c-1.45,1.84-3.09,3.37-4.99,4.55c-1.19,0.74-0.79,2.9,0.76,2.8c5.45-0.38,10.69-1.95,15.53-4.48c4.69-2.45,8.92-5.73,12.78-9.32
			c2.17-2.02,4.23-4.16,6.22-6.36c0.54-0.6,0.59-1.53,0-2.12c-0.55-0.55-1.58-0.6-2.12,0c-6.66,7.36-14.39,14.42-23.97,17.6
			c-2.74,0.91-5.56,1.49-8.43,1.69c0.25,0.93,0.5,1.86,0.76,2.8c7.93-4.9,10.98-14.28,14.17-22.51c0.91-2.35,1.76-4.47,2.88-6.73
			c0.36-0.73,0.2-1.62-0.54-2.05c-0.68-0.4-1.67-0.18-2.05,0.54c-3.07,5.69-6.63,10.89-11.22,15.45
			c-4.86,4.83-10.23,9.53-17.01,11.32c-1.54,0.41-2.58,0.53-4.14,0.6c-1.83,0.08-3.66,0.02-5.48-0.03c0.25,0.93,0.5,1.86,0.76,2.8
			c11.07-4.76,17.75-15.21,23.07-25.51c1.53-2.97,2.99-5.97,4.48-8.96c0.74-1.48-1.1-3.08-2.36-1.82c-2.57,2.58-5.39,4.92-8.36,7.02
			c-1.59,1.12-3.24,2.18-4.96,3.11c-1.56,0.84-2.86,1.44-4.55,1.9C303.25,97.45,304.04,100.35,305.91,99.85L305.91,99.85z"/>
	</g>
</g>
<g class="st9">
	<g class="st10">
		<path class="st11" d="M351.63,100.83c0.03,1.67-0.19,2.82-0.57,4.44c-0.4,1.68-0.99,3.54-1.63,4.99
			c-0.35,0.78-0.74,1.54-1.19,2.26c-0.09,0.14-0.18,0.28-0.28,0.42c-0.05,0.08-0.11,0.15-0.16,0.23c-0.14,0.19,0.13-0.16-0.01,0.02
			c-0.22,0.27-0.45,0.52-0.7,0.77c-1.11,1.13-1.99,1.79-3.22,2.62c-5.91,3.97-12.65,6.27-19.22,8.85
			c-3.41,1.34-6.85,2.68-10.07,4.43c-1.24,0.68-0.76,2.96,0.76,2.8c9.17-0.97,18.25-2.87,27.05-5.62
			c9.08-2.83,18.05-6.56,25.98-11.87c4.07-2.72,7.89-5.89,11.03-9.67c-0.79-0.61-1.57-1.21-2.36-1.82
			c-2.38,4.44-5.37,8.54-8.67,12.33c-3.47,3.98-7.28,7.68-11.41,10.98c-2.14,1.71-4.39,3.29-6.74,4.7c-1.29,0.78-0.73,2.75,0.76,2.8
			c1.62,0.04,3.25-0.19,4.85-0.42c1.91-0.27,3.81-0.63,5.69-1.06c1.58-0.36,3.18-0.75,4.7-1.32c2.12-0.79,4.19-1.76,6.23-2.74
			c8.47-4.08,16.35-9.39,23.37-15.64c3.94-3.51,7.6-7.33,10.94-11.42c0.51-0.63,0.61-1.51,0-2.12c-0.53-0.53-1.61-0.63-2.12,0
			c-5.79,7.09-12.54,13.38-20.05,18.61c-3.76,2.62-7.71,4.98-11.8,7.06c-3.42,1.74-6.9,3.39-10.64,4.34
			c-2.02,0.51-4.07,0.93-6.13,1.26c-1.57,0.25-3.25,0.51-5.03,0.46c0.25,0.93,0.5,1.86,0.76,2.8c4.47-2.69,8.59-5.98,12.4-9.55
			c4-3.75,7.66-7.86,10.9-12.28c1.69-2.31,3.25-4.73,4.6-7.25c0.35-0.66,0.22-1.48-0.39-1.94c-0.55-0.41-1.49-0.47-1.97,0.12
			c-5.59,6.74-13.1,11.4-20.99,15.12c-8.45,3.98-17.56,6.82-26.74,8.82c-4.78,1.04-9.53,1.84-14.21,2.33
			c0.25,0.93,0.5,1.86,0.76,2.8c2.92-1.6,5.68-2.68,8.71-3.88c3.55-1.41,7.12-2.77,10.63-4.27c3.29-1.41,6.56-2.93,9.56-4.89
			c2.7-1.76,5.12-3.82,6.6-6.74c0.98-1.93,1.71-4,2.24-6.09c0.47-1.86,0.84-3.82,0.8-5.75C354.59,98.9,351.59,98.89,351.63,100.83
			L351.63,100.83z"/>
	</g>
</g>
<g class="st9">
	<g class="st10">
		<path class="st11" d="M404.17,101.99c-0.26,4.44-2.32,8.77-4.82,12.55c-2.76,4.18-6.19,7.89-9.75,11.39
			c-1.92,1.89-3.9,3.71-5.89,5.52c-1.14,1.04,0.07,2.87,1.46,2.51c8.41-2.16,16.57-5.32,24.38-9.11
			c8.11-3.93,15.87-8.63,22.96-14.21c3.69-2.9,7.18-6.07,10.3-9.57c0.54-0.6,0.6-1.53,0-2.12c-0.55-0.55-1.58-0.61-2.12,0
			c-5.57,6.26-12.27,11.44-19.33,15.91c-7.47,4.73-15.44,8.73-23.69,11.91c-4.35,1.68-8.78,3.13-13.29,4.29
			c0.49,0.84,0.97,1.67,1.46,2.51c3.75-3.4,7.44-6.87,10.79-10.67c3.46-3.93,6.63-8.21,8.66-13.06c1.05-2.51,1.72-5.14,1.88-7.85
			c0.05-0.81-0.72-1.5-1.5-1.5C404.82,100.49,404.22,101.18,404.17,101.99L404.17,101.99z"/>
	</g>
</g>
<g class="st9">
	<g class="st10">
		<path class="st11" d="M133.7,184c10.05,0.05,19.83-2.84,28.74-7.35c4.25-2.15,8.25-4.74,12.43-7.02c4.21-2.3,8.47-4.5,12.62-6.9
			c4.6-2.66,9.05-5.6,13.03-9.15c-0.71-0.71-1.41-1.41-2.12-2.12c-11.94,13.9-27.33,24.94-44.27,31.91c-1.8,0.74-1.12,3.17,0.8,2.89
			c19.74-2.82,39.72-6.25,58.14-14.18c5.07-2.18,9.98-4.74,14.61-7.75c-0.61-0.79-1.21-1.57-1.82-2.36
			c-11.21,12.76-27.87,18.75-42.46,26.61c-1.28,0.69-0.73,2.88,0.76,2.8c19.11-1.15,37.81-7.65,53.5-18.64
			c4.4-3.09,8.56-6.51,12.44-10.24c-0.79-0.61-1.57-1.21-2.36-1.82c-3.14,4.65-6.06,9.51-9.72,13.78
			c-3.62,4.23-7.95,7.49-13.06,9.73c-1.44,0.63-0.61,2.76,0.76,2.8c23.14,0.65,46.59-4.25,67.36-14.53
			c5.84-2.89,11.44-6.23,16.74-10.02c-0.61-0.79-1.21-1.57-1.82-2.36c-5.73,6.26-13.41,10.46-20.89,14.26
			c-7.64,3.89-15.57,7.25-23.02,11.51c-1.29,0.74-0.73,2.81,0.76,2.8c10.64-0.11,21.29-1.22,31.76-3.11
			c10.95-1.98,21.81-4.86,32.09-9.14c5.31-2.21,10.46-4.78,15.27-7.94c-0.61-0.79-1.21-1.57-1.82-2.36
			c-3.81,3.75-7.84,7.23-12.32,10.16c-4.48,2.93-9.26,5.36-14.01,7.79c-1.37,0.7-0.67,2.78,0.76,2.8c9.1,0.11,18.27-0.33,27.18-2.31
			c8.04-1.78,15.7-4.91,22.94-8.81c4.88-2.63,9.59-5.58,14.22-8.63c-0.61-0.79-1.21-1.57-1.82-2.36
			c-9.9,9.18-21.61,15.83-33.17,22.64c-1.33,0.78-0.69,2.72,0.76,2.8c20.87,1.14,40.41-7.73,57.63-18.71
			c-0.61-0.79-1.21-1.57-1.82-2.36c-9.43,9.01-19.58,17.2-30.38,24.51c-1.1,0.74-0.85,2.99,0.76,2.8
			c21.53-2.62,42.41-9.29,61.43-19.71c1.69-0.93,0.18-3.52-1.51-2.59c-18.53,10.15-38.94,16.75-59.92,19.3
			c0.25,0.93,0.5,1.86,0.76,2.8c11-7.45,21.38-15.8,30.98-24.98c1.22-1.16-0.37-3.28-1.82-2.36c-16.8,10.72-35.74,19.42-56.12,18.3
			c0.25,0.93,0.5,1.86,0.76,2.8c11.78-6.94,23.69-13.76,33.78-23.11c1.23-1.14-0.38-3.3-1.82-2.36
			c-7.45,4.91-15.14,9.64-23.42,13.05c-7.44,3.05-15.27,4.93-23.26,5.72c-5.36,0.53-10.75,0.65-16.13,0.58
			c0.25,0.93,0.5,1.86,0.76,2.8c4.88-2.49,9.78-4.99,14.35-8.01c4.56-3.01,8.7-6.57,12.59-10.41c1.19-1.17-0.37-3.31-1.82-2.36
			c-8.67,5.69-18.41,9.56-28.32,12.48c-10.53,3.1-21.38,5.15-32.3,6.3c-5.64,0.6-11.31,0.94-16.98,1.01c0.25,0.93,0.5,1.86,0.76,2.8
			c7.58-4.34,15.66-7.75,23.43-11.72c7.56-3.86,15.3-8.19,21.09-14.52c1.09-1.19-0.36-3.39-1.82-2.36
			c-18.56,13.27-40.9,21.01-63.52,23.41c-6.33,0.67-12.7,0.91-19.07,0.73c0.25,0.93,0.5,1.86,0.76,2.8c5.31-2.33,9.9-5.8,13.67-10.2
			c3.83-4.47,6.9-9.52,10.19-14.38c0.97-1.44-1.16-2.97-2.36-1.82c-13.31,12.82-30.12,21.77-48.15,25.81
			c-5.16,1.15-10.39,1.88-15.66,2.2c0.25,0.93,0.5,1.86,0.76,2.8c14.82-7.99,31.68-14.11,43.07-27.08c1.07-1.21-0.31-3.34-1.82-2.36
			c-16.62,10.81-36.43,15.67-55.73,19.07c-5.42,0.95-10.86,1.78-16.31,2.56c0.27,0.96,0.53,1.93,0.8,2.89
			c17.43-7.18,33.3-18.37,45.6-32.69c1.26-1.46-0.67-3.42-2.12-2.12c-6.81,6.08-15.08,10.2-23.06,14.51
			c-8.36,4.51-16.21,9.73-25.37,12.55c-5.28,1.62-10.73,2.51-16.26,2.48C131.77,180.99,131.77,183.99,133.7,184L133.7,184z"/>
	</g>
</g>
<g class="st9">
	<g class="st10">
		<path class="st11" d="M432.46,175.25c-2.91,3.28-6.48,5.65-10.22,7.93c-4.13,2.52-8.43,4.76-12.71,7.02
			c-2.1,1.11-4.2,2.22-6.25,3.41c-0.64,0.37-0.91,1.2-0.61,1.87c0.32,0.72,1.01,1.01,1.77,0.87c9.42-1.79,18.94-2.95,28.34-4.85
			c9.48-1.92,19.18-4.45,27.56-9.43c4.34-2.58,8.22-5.87,11.16-10c-0.91-0.39-1.83-0.77-2.74-1.16c-1.15,3.1-3.28,5.75-5.67,8.1
			c-2.56,2.51-5.39,4.71-8.09,7.06c-1.51,1.32-2.99,2.69-4.34,4.18c-0.45,0.5-0.58,1.22-0.23,1.82c0.32,0.54,1.08,0.91,1.69,0.69
			c10.53-3.79,21.63-6.62,31.01-12.96c2.86-1.94,5.55-4.14,8.07-6.51c-0.71-0.71-1.41-1.41-2.12-2.12
			c-1.51,1.72-3.09,3.39-4.76,4.96c-0.73,0.68-1.47,1.35-2.23,1.99c-0.36,0.31-0.73,0.61-1.1,0.91c-0.37,0.3-0.64,0.51-0.92,0.72
			c-3,2.29-6.21,4.29-9.36,6.36c-2.16,1.42-4.29,2.87-6.38,4.38c-0.55,0.39-0.88,1.01-0.69,1.69c0.17,0.63,0.79,1.11,1.45,1.1
			c10.38-0.21,20.65-2.73,29.98-7.29c2.61-1.28,5.14-2.72,7.57-4.31c-0.61-0.79-1.21-1.57-1.82-2.36
			c-4.56,4.79-9.87,8.76-15.75,11.78c-1.34,0.69-0.69,2.82,0.76,2.8c3.81-0.07,7.52-0.97,11.03-2.43c3.47-1.45,6.74-3.29,10.03-5.1
			c1.92-1.06,3.86-2.09,5.85-3.03c0.73-0.35,0.92-1.4,0.54-2.05c-0.44-0.75-1.32-0.89-2.05-0.54c-6.48,3.06-12.46,7.44-19.45,9.31
			c-1.95,0.52-3.92,0.81-5.94,0.84c0.25,0.93,0.5,1.86,0.76,2.8c6.09-3.13,11.64-7.3,16.36-12.25c1.14-1.19-0.35-3.32-1.82-2.36
			c-8.36,5.48-17.86,9.07-27.75,10.52c-2.74,0.4-5.51,0.61-8.29,0.67c0.25,0.93,0.5,1.86,0.76,2.8c6.61-4.78,13.88-8.7,19.94-14.22
			c1.92-1.75,3.71-3.62,5.42-5.57c1.27-1.44-0.7-3.46-2.12-2.12c-4.09,3.85-8.62,7.13-13.64,9.67c-4.64,2.35-9.51,4.03-14.52,5.73
			c-3.2,1.08-6.41,2.16-9.59,3.3c0.49,0.84,0.97,1.67,1.46,2.51c4.94-5.45,11.47-9.26,15.91-15.2c1.25-1.67,2.23-3.5,2.96-5.46
			c0.26-0.69-0.23-1.51-0.87-1.77c-0.73-0.29-1.43-0.01-1.87,0.61c-0.16,0.22-0.32,0.44-0.48,0.65c-0.03,0.05-0.23,0.3-0.08,0.1
			c-0.09,0.12-0.18,0.23-0.27,0.34c-0.34,0.42-0.69,0.83-1.05,1.23c-0.69,0.77-1.42,1.5-2.18,2.19c-1.63,1.49-3.06,2.55-4.98,3.75
			c-3.94,2.49-7.96,4.22-12.29,5.7c-9.31,3.18-19.08,4.85-28.77,6.4c-5.06,0.81-10.14,1.56-15.18,2.52
			c0.39,0.91,0.77,1.83,1.16,2.74c8.06-4.67,16.71-8.39,24.24-13.95c1.98-1.46,3.9-3.04,5.54-4.88c0.54-0.61,0.6-1.52,0-2.12
			C434.04,174.7,433,174.64,432.46,175.25L432.46,175.25z"/>
	</g>
</g>
<path class="st12" d="M525.97,277.09c-25.64,42.79-61.42,62.77-53.45,115.48c8.01,53,9.88,1.41,1.21,20.89
	c-9.28,20.85-71.78,32.32-71.78,32.32l-134.47,46.1l25.33,25.92c0,0,386.51,15.93,400.59-5.17c6.96-10.44,18.25-39.89,21.26-70.16
	c3.07-30.91,1.29-64.75-5.95-77.98c-5.25-9.58-9.5-23.18-18.23-40.54c-8.2-16.33-24.16-34.18-38.26-49.02
	c-22.94-24.15-30.19-24.95-47.44-37.68c-48.64-35.88-136.96,5.12-130.67,12.59L525.97,277.09z"/>
<path class="st13" d="M465.05,289.98c0,37.4-61.5,50.91-137.36,50.91S201.9,326.58,201.9,289.18c0-19.37,24.24-31.4,56.36-42.28
	c29.92-10.14,66.43-19.8,103.01-19.8c32.57,0,50.22,7.53,66.7,15.85C449.88,254.01,465.05,268.64,465.05,289.98z"/>
<path class="st14" d="M482.13,270.94c0,37.4-61.5,50.91-137.36,50.91s-129.29-6.42-129.29-43.82c0-19.37,27.74-39.29,59.86-50.18
	c29.92-10.14,66.43-19.8,103.01-19.8c32.57,0,50.22,7.53,66.7,15.85C466.96,234.97,482.13,249.6,482.13,270.94z"/>
<path class="st16" d="M472.45,357.49c-2.88,6.13,79.85-60.12,48.02-86.25c-38.9-31.93-98.18-32.73-97.26-36.12l62.34,78.46
	l-81.62-16.09L472.45,357.49z"/>
<ellipse class="st17" cx="607.39" cy="325.04" rx="38.71" ry="41.04"/>
<ellipse class="st5" cx="602.6" cy="321.67" rx="28.77" ry="31.15"/>
<g>
	<path d="M719.52,410.95c-6.32-81.28-70.74-177.63-155.62-192.94c-104.9,3.26-56.32,51.93-157.17-0.68
		c15.41,31,48.72,62.64,71.72,92.91c-29.62-8.46-62.91-11.59-91-19.1c52.84,39.63-12.72,20.63-46.79,28.05
		c-36.06-5.02-79.17,4.84-110.42-17.56c-19.12-16.38-11.38-50.77,13.34-57.55c72.72-29.63,159.73-50.29,229.57-3.77
		c-61.71-60.15-178.49-29.16-247.68,7.67c-55.67,83.17,94.49,80.33,144.34,75.22c18.97,4.2,41.57-7.4,58.23-0.47
		c22.97,14.15,35.02,27.34,39.44,51.53c18.9,49.53-33.4,61.91-70.59,70.68c-48.05,11.35-94.5,26.68-138.68,49.56
		c15.1,12.03,60.22-26.41,85.7-26.45c30.94-7.83,90.55-21.85,125.08-40.94c-22.95,28.77-24.72,32.7,13.87,4.92
		c-31.25,33.4,15.89,2.33,7.9,14.47c5.97-2.47,17.88-10.93,19.57-18.7c-6.86,2.54-26.58,19.01-29.79,12.94
		c6.85-7.16,11.39-14.1,12.37-23.94c-7.56,9.69-39.98,34.81-19.1,12.92c8.39-10.14,5.57-19.57,2.64-29.9
		c-8.09-47.48-5.62-30.3,27.16-61.5c38.58-57.04,39.1-69.6-27.55-89.81c102.7-73.43,213.24,37.09,233.67,137.97
		c-9.53,45.6-59.69,76.7-103.44,86.83c38.67,7.77,85.37-34.11,104.73-68.63c9.11,37.49-9.17,75.57-17.35,110.65
		C717.57,501.28,716.48,441.39,719.52,410.95z M489.74,260.44c8.96,5.81,32.12,8.13,33.8,16.92c-4.29,31.37-20.46,61.05-48.3,77.65
		c-10.17-14.5-67.67-49.14-59.01-52.16c22.26,2.39,58.53,14.36,73.33,13.18C462.5,266.94,372.31,208.06,489.74,260.44z"/>
	<path d="M446.56,195.55c-7.59-0.44-15.27-0.27-22.66-0.32c8.63-29.15-0.32-68.18-3.07-93.38c73.79,63.25,74.44,152.29,61.36-13.15
		c12.01-10.61,22.96,120.68,6.17,107.99c-22.35-23-37.6-52.88-57.96-77.56C435.4,144.99,431.81,172.53,446.56,195.55z"/>
	<path d="M531.84,199.54c-32.8,11.81-5.84-83.83-24.56-104.61C554.67,73.45,616.51,199.41,531.84,199.54z M560.68,142.97
		c-0.11-15.86-25.72-49.79-42.04-42.59c3.4,29.45,0.24,68.49,7.66,93.35C550.86,194.07,565.81,165,560.68,142.97z"/>
	<path d="M341.08,116.27c-2.15-4.66-12.47-9.86-4.81-10.83c13.54-1.71,80.3-26.23,65.53,6.09c-2.24,12.69-5.7-4.49-11.5-3.87
		c-46.04-0.46-48.52,1.17-31.9,44.34c7.62,1.34,60.41-11.28,40.15,1.47c-33.4,8.78-49.4-8.39-33.01,35.52
		c14.94,3.07,32.81-1.7,43.86-12.93c5.04,25.81-35.21,16.46-50.77,22.27C345.28,183.51,341.23,122.62,341.08,116.27z"/>
	<path d="M279.29,192.91c-21.52-19.46-9.65-22.82-3.07-43.62c14.02-59.19-82.68-55.4-56.08-42.4
		c13.64,22.1-17.21,121.92,29.62,106.38c1.77-5.5-22.31-10.08-13.16-31.52c46.26-21.2,18.92,33.99,59.95,21.85
		C304.4,198.97,282.2,198.72,279.29,192.91z M267.92,142.71c-0.34,23.44-23.1,25.29-32.46,25.42c0-12,0-42.4,0-54.4
		C249.59,107.66,273.6,127.37,267.92,142.71z"/>
	<path d="M191.34,214.46c-7.25,8.53-21.68,6.51-31.58,8.86c12.7-33.38-1.33-73.99-0.58-109.85c0.08-8.88,13.81-1.73,19.05-2.26
		c13.61-1.92,38.79-4.09,19.25,13.25c-4.68-16.98-7.61-3.02-21.7-6.52c-18.14-4.34-3.4,24.62-6.37,34.86
		c6.66,7.36,40.85-8.67,40.51,5.22c-4.63,13.74-9.25-6.47-34.43,1.86C169.51,165.58,180.27,209.65,191.34,214.46z"/>
	<path d="M172.26,354.36c-9.52,8.63-61.89,131.87-10.3,98.62c23.17-1.43-31.21,36.3-29.75-11.09
		c-11.24-11.71-16.96,15.04-27.36,23.7c-8.42,7.01-33.93,17.61-26.98,4.74C119.2,478.24,147.52,349.07,172.26,354.36z M136.17,423.9
		c-2.33,0.02-7.36,8.31-6.66,10.7C134.63,433.53,134.31,427.83,136.17,423.9z"/>
	<path d="M618.41,180.27c-1.92-15.26-16.66-28.24-26.94-38.42c-17.39-35.8,66.61-57.94,36.91-14.95c-5.22,2.94-1.05-5.36,0.33-7.41
		c3.1-22.63-37.12,0.01-25.92,17.98c3.71,17.85,21.7,27.87,27.42,44.88c8.28,22.4-29.65,36.01-35.28,12.01
		C600.22,187.58,616.62,213.19,618.41,180.27z"/>
	<path d="M332.1,388.44c36.46,11.43-25.78,62.62-39.28,51.3c4.71-22.37,19.52-46.52,17.32-69.82
		C326.24,340.62,357.64,365.69,332.1,388.44z M311.97,398.99c1.27,12.43-23.91,50.76-3.05,33.54c8.33-4.49,40.43-31.07,22.41-37.58
		C324.49,396.95,318.66,403.97,311.97,398.99z M329.68,382.34c9.44-10.79,5.49-29.32-8.87-14.26
		C316.28,389.29,307.75,404.16,329.68,382.34z"/>
	<path d="M250.66,403.7c-3.43,19.96-31.12,50.69-48.31,39.81c8.87-25.18,13.36-55.41,26.57-77.67
		C252.3,353.52,262.1,387.58,250.66,403.7z M210.45,442.29c24.27-0.13,59.5-89.92,21.11-67.51
		C224.71,397.55,215.41,419.22,210.45,442.29z"/>
	<path d="M319.01,305.25c-32.39,2.27-13.72-45.34-4.37-62.43C359.36,183.57,341.43,286,319.01,305.25z M307.82,290.48
		c9.24,27.92,29.99-43.42,29.62-55.41C321.53,225.4,309.12,275.69,307.82,290.48z"/>
	<path d="M404.01,395.7c-19.48,71.02-5.68-37.3,9.47-45.88c5.83,6.43-3.44,21.28-1.65,28.62c1.85,13.22-3.18,22.73,1.69,35.63
		c12.96-0.92,18.25-26.99,25.54-37.52c3.1-5.71,0.77-25.7,10.38-21.94C451.51,379.99,409.32,459.98,404.01,395.7z"/>
	<path d="M633.37,318.27c7.07,42.87-58.27,45.95-64.01,8.65C560.91,283.96,634.14,272.75,633.37,318.27z M611.69,297.2
		c-0.55-0.15-1.1-0.31-1.64-0.52c-43.97-16.78-44.56,66.36,2.33,49.73C631.94,340.9,632.31,302.64,611.69,297.2z"/>
	<path d="M168.72,391.55c-10.28-4.66,0.57-7.36,5.68-10.2c8.64,4.55-10.74,34.69-4.32,48.26c15.84,20.02,33.16-35.71,35.05-49.31
		c1.63-11.7-10.02-10.89,5.94-15.98c13.12,1.79-1.46,25.35-4.35,36.01C191.02,458.1,144.49,451.28,168.72,391.55z"/>
	<path d="M398.23,223.27c-13.61,2.17-43.12,9.4-34.35,23.16c7.71,0.15,23.85-10.82,27.1-0.66c-37.95,8.29-37.23,18.69-51.2,53.11
		c-18.48,4.28,20.63-58.28,20.78-71.25C367.29,221.04,394.27,212.28,398.23,223.27z"/>
	<path d="M293.7,101.59c7.6,4.14,33.1-4.64,24.45,5.72c-20.87,9.08,11.14,73.37,10.38,92.91c-25.95,14.2-8.96-0.89-12.03-8.39
		C307.02,160.84,311.51,124.38,293.7,101.59z"/>
	<path d="M305.87,359.97c0.46,76.4-75.04,101.59-36.64,9.6c-2.58,34.32-8.26,89.46,23.34,21.15
		C299.59,380.98,293.86,364.91,305.87,359.97z"/>
	<path d="M378.98,382.67c2.08-51.25-40.08,30.97-30.88,49.18C368.97,447.52,378.41,399.89,378.98,382.67z M373.1,390.07
		c-4.92,12.86-4.72,33.48-18.61,39.79C348.3,419.41,374.87,353.23,373.1,390.07z"/>
	<path d="M499.95,517.44c17.01-7.51,43.3-26.88,9.43-11.96c-8.17,1.92-39.26,19.23-36.98,4.86c9.55-4.37,18.42-12.97,28.62-14.58
		c-2.76,6.36-11.81,7.92-17.14,12.16c-6.74,9.85,43.5-17.83,56.7-15.95c-7.55,9.46-17.1,16.83-28.7,20.86
		c8.37,1.39,29.09-7.15,39.49-9.56C546.39,509.01,514.16,519.9,499.95,517.44z"/>
	<path d="M349.57,499.63c-7.95,1.65-35.27,15.46-32.63,11.28c14.01-8.38,29.39-16.23,38.9-29.97c-3.29-7.15-16.43,12.55-22.24,15.68
		c-9.13,7.35-18.45,11.93-28.29,18.93C327.12,520.67,400.73,477.88,349.57,499.63z"/>
	<path d="M670.65,505.48c-4.95,10.87-6.82,11.42-24.27,16.73c-9.04-3.75-20.16,2.6-31.35-0.02
		C625.18,519.49,656.01,507.81,670.65,505.48z M657.1,512.05c-3.67,1.73-7.34,3.45-11,5.18C650.66,517.36,654.29,515.5,657.1,512.05
		z"/>
	<path d="M510.69,450.61c-10,7.55-38.2,12.91-43.44,8.03c19.96-2.53,38.93-7.4,55.25-20.26c3.37-0.85,10.81-13.44,12.06-7.13
		C528.33,436.88,519.48,454.78,510.69,450.61z"/>
	<path d="M433.51,511.66c17.16-1.6,33.07-7.75,49.86-13.7c-15.55,10.36-41.1,21.38-58.72,14.43c15.55-5.67,27.95-16.55,41.87-24.4
		C462.09,500.34,441.81,504.18,433.51,511.66z"/>
	<path d="M501.61,459.59c22.62-3.78,45.89-13.97,60.73-30.62c-0.53,12.21-17.07,23.44-27.44,29.51
		C549.7,439.85,512.18,468.57,501.61,459.59z"/>
	<path d="M601.02,518.64c11.39-3.37,17.93-16.4,27.84-20.31c1.59,5.77-21.96,19.27-9.73,15.62c12.71-3.14,21.09-14.24,33.38-17.55
		C644.33,509.5,615.91,523.58,601.02,518.64z"/>
	<path d="M568.64,520.19c16.62-1.52,31.25-7.85,46.36-14.98c-9.56,13.17-51.52,23.9-57.48,16.01c11.68-3.98,21.19-11.3,30.68-18.23
		C590.5,513.9,572.38,513.93,568.64,520.19z"/>
	<path d="M409.14,491.09c-16.45,15.53-45.4,24.34-67.34,25.54C363.54,508.1,388.92,500.99,409.14,491.09z"/>
	<path d="M450.07,493.89c-19.68,9.13-49.22,26.79-69.66,18.89C403.64,512.35,428.55,498.62,450.07,493.89z"/>
	<path d="M340.74,486.66c-16.06,9.41-37.24,23.25-55.01,23.53C301.87,500.66,323.8,491.47,340.74,486.66z"/>
	<path d="M581.62,503.63c-13.41,12.73-38.73,22.58-56.95,16.76C543.41,518.88,563.58,512.04,581.62,503.63z"/>
	<path d="M538.26,458.68c20.15-4.65,37.17-15.42,53.02-27.11C579.64,446.31,556.74,462.88,538.26,458.68z"/>
	<path d="M346.49,512.25c13.85-5.92,26.87-18.64,38.85-24.47C377.61,499.22,359.55,510.65,346.49,512.25z"/>
	<path d="M416.94,491.82c-4.13,9.79-16.89,14.93-26.63,17.18C400.21,505.56,408.47,494.39,416.94,491.82z"/>
	<path d="M544.28,511.66c6.2-4.09,12.21-8.05,18.29-12.06C562.2,504.25,549.18,511.69,544.28,511.66z"/>
	<path d="M604.32,336.58c-26.99,7.29-30.79-36.93-3.27-34.62C618.81,303.52,626.53,336.36,604.32,336.58z M601.31,324.57
		c1.98-0.67,3.61-2.59,3.75-5.59c-0.34-4.15-3.53-2.82-6.56-1.1C594.75,320,597.23,325.95,601.31,324.57z"/>
</g>
</svg>
